<svg width="29" height="53" viewBox="0 0 29 53" fill="none" xmlns="http://www.w3.org/2000/svg">
<path d="M6.13298 50.8154L5.71476 50.3852L6.13298 50.8154L25.0919 32.3857C26.7514 30.7726 27.6 28.6378 27.6 26.5C27.6 24.3623 26.7514 22.2275 25.0919 20.6144L6.13297 2.18457L5.71476 2.6148L6.13297 2.18457C5.05684 1.13848 3.29037 1.13848 2.21424 2.18457C1.12859 3.23991 1.12859 4.98594 2.21423 6.04128L21.1732 24.4711C22.3266 25.5923 22.3266 27.4078 21.1732 28.529L2.21424 46.9587C1.12859 48.0141 1.12859 49.7601 2.21424 50.8154C3.29038 51.8615 5.05684 51.8615 6.13298 50.8154Z" fill="#0C0C0C" stroke="#0C0C0C" stroke-width="1.2"/>
</svg>
