<svg width="143" height="130" viewBox="0 0 143 130" fill="none" xmlns="http://www.w3.org/2000/svg">
<path d="M136.5 78H130C130 52.845 109.655 32.5 84.5 32.5H78V24.245C81.9 22.035 84.5 17.81 84.5 13C84.5 5.85 78.715 0 71.5 0C64.285 0 58.5 5.85 58.5 13C58.5 17.81 61.1 22.035 65 24.245V32.5H58.5C33.345 32.5 13 52.845 13 78H6.5C2.925 78 0 80.925 0 84.5V104C0 107.575 2.925 110.5 6.5 110.5H13V117C13 124.215 18.85 130 26 130H117C124.215 130 130 124.215 130 117V110.5H136.5C140.075 110.5 143 107.575 143 104V84.5C143 80.925 140.075 78 136.5 78ZM57.135 94.25C54.6 88.53 48.945 84.5 42.25 84.5C35.555 84.5 29.9 88.53 27.365 94.25C26.52 92.235 26 90.09 26 87.75C26 78.78 33.28 71.5 42.25 71.5C51.22 71.5 58.5 78.78 58.5 87.75C58.5 90.09 57.98 92.235 57.135 94.25ZM115.635 94.25C113.1 88.53 107.25 84.5 100.75 84.5C94.25 84.5 88.4 88.53 85.865 94.25C85.02 92.235 84.5 90.09 84.5 87.75C84.5 78.78 91.78 71.5 100.75 71.5C109.72 71.5 117 78.78 117 87.75C117 90.09 116.48 92.235 115.635 94.25Z" fill="#0C0C0C"/>
</svg>
